<?xml version="1.0" standalone="no"?><!DOCTYPE svg PUBLIC "-//W3C//DTD SVG 1.1//EN" "http://www.w3.org/Graphics/SVG/1.1/DTD/svg11.dtd"><svg t="1714337499165" class="icon" viewBox="0 0 1024 1024" version="1.1" xmlns="http://www.w3.org/2000/svg" p-id="1491" xmlns:xlink="http://www.w3.org/1999/xlink" width="200" height="200"><path d="M330.048811 492.088956l-0.969942-2.984377-0.778872-3.915345-0.540034-2.155539 0-8.804431 0.932368-3.45206 0.967344-3.688899 1.240759-3.834001 1.688855-4.271504 2.231487-4.462375 3.14087-4.457378 0-3.14087 0.308791-2.915024 0.467683-3.989695 1.359478-4.422402 1.240759-4.854709 0.984732-2.210901 1.148821-2.070196 1.469404-2.311833 1.59352-1.683259 0-11.035518 0.92977-5.683547 0.92937-6.59353 1.668269-7.894647 2.288848-8.206436 1.705843-4.512341 1.689455-4.930057 1.841152-4.577896 2.213499-4.925061 2.249475-5.356768 2.597239-5.055572 2.909427-5.376755 3.6871-5.372358 1.685857-3.060525 1.823763-2.542676 3.93733-5.668157 4.032666-5.659163 4.618868-5.839441 4.927059-5.683746 5.352371-5.582615 5.585613-5.764092 6.748425-6.206192 4.309678-3.764048 5.216463-4.055251 5.293411-3.608553 5.739109-3.447063 5.511263-3.065322 6.205193-2.522889 6.595528-3.161257 6.558553-2.150542 6.553157-2.216497 7.060613-2.211101 7.058215-1.703245 7.446951-1.377066 7.534492-1.220572 14.878313-2.02063 7.915633-0.42711L537.225745 259.985922l7.798712 0.969942 7.829691 0.92977 7.995579 0.854421 7.406978 1.763804 7.833689 1.688455 7.358011 1.899712 8.050542 2.150542 7.367005 2.623621 7.056216 2.984377 7.526897 3.14147 6.885332 3.45206 6.674475 3.824007 6.537568 4.226534 5.66316 3.899356 2.598238 2.231487 2.759129 1.60791 5.226456 4.462974 4.426998 4.281497 4.382029 4.441988 4.30708 4.925261 3.527608 4.73379 4.191158 4.929658 2.949001 5.271426 2.965989 4.694217 3.159858 5.432317 2.599238 4.769366 4.422002 10.050186 2.171528 5.196477 1.687856 4.829326 1.687856 5.215864 1.512974 4.910071 1.085264 4.211145 1.35708 5.00061 2.402371 8.87938 1.536958 7.759139 0.986331 7.50791 0.853421 6.049898 1.362077 9.211754 0.305793 1.452016 1.086264 1.688855 2.914024 4.754377 1.860738 3.20023 1.667869 3.3927 2.130555 3.588167 1.864736 4.30648 1.200186 4.462375 1.317107 4.809339 1.010315 4.98502 0.467683 2.462331 0.391734 2.984976 0 2.603235-0.391734 2.618625 0 3.235806-0.779472 3.120884-1.396053 6.075281-1.593919 3.060525-1.156216 3.457656 0 0.829038 0.538635 1.070674 1.591921 2.542276 6.905318 10.202083 5.467293 7.658208 2.598238 5.140914 3.532605 5.608198 3.065921 6.113855 3.527608 6.589532 3.532605 7.375999 3.975305 8.342344 2.231487 5.136517 2.054607 4.98462 1.78479 5.297408 1.748814 4.752778 1.316108 4.98562 1.35708 4.673831 1.708841 9.130809 1.356081 9.352659 0.930369 8.280386 0 11.659095-0.617581 4.151185-0.895393 7.116175-1.241158 6.441633-1.899712 5.810061-0.698526 2.391379-1.316108 2.855064-1.126236 1.974661-1.476999 2.468326-1.317107 1.526965-1.667869 2.000644-1.477998 1.606911-1.586924 1.377066-1.900711 0.834434-1.707842 0.854421-1.398052 0.461687-2.130555 0-1.377066-0.461687-2.618225-1.301118-1.200186-0.829438-1.242158-0.935366-1.37107-1.241158-1.382063-1.35708-2.287449-2.53628-2.718157-3.589566-2.131555-3.708486-2.134553-2.96399-2.075593-3.452659-2.930013-6.145833-3.296765-6.382673-0.386738-0.216853-0.542632 0-1.361077 0.985332-0.774475 1.688855-1.276135 2.075593-2.252473 6.210789-3.376711 8.825017-4.342056 10.567835-3.260789 5.312398-3.432673 5.507266-4.050254 6.211788-4.312076 6.070884-2.210501 2.753133-2.674187 2.985976-6.15083 6.069885 0.543631 0.523645 0.833435 0.853421 3.065921 1.838753 12.804319 6.130843 5.588011 3.145867 5.311399 3.065921 5.277422 3.840396 4.692818 3.989295 2.291446 1.748814 1.703845 2.080589 1.748814 2.381385 1.473001 2.598238 0.773476 2.156538 0.970342 2.613228 0.391734 2.211501 0.462686 2.603235-0.462686 1.768801 0 1.758808-0.391734 1.848747-0.970342 1.678862-0.386738 1.317107-0.854421 1.596917-2.322425 3.14087-2.135552 2.543276-1.667869 1.914702-1.397053 1.381064-3.527608 2.599238-3.995291 2.230488-4.271104 2.151541-4.538923 2.069597-5.120528 1.980657-2.719156 0.853421-2.437347 0.684536-5.899 1.37107-6.130843 1.322104-6.130843 1.296121-6.669478 1.07627-6.904319 0.306792-7.060213 0.849424L623.882991 772.518624l-7.910637-0.467683-7.372002-0.694529-7.915633-1.070274-7.869664-0.833435-8.301372-1.156216-8.030555-1.999644-7.839685-1.537957-7.793716-2.206504-7.995579-2.855064-7.834688-2.386382-4.110213-1.352083-3.683503-1.321104-2.332419-0.915379-2.28545-0.441701-6.51858 0-7.522899-0.542632-3.824407-0.391734-4.909671-0.543631-3.14087 2.835078-4.30708 2.673188-5.821453 2.854065-6.454624 3.527608-3.924739 1.919698-4.07084 1.517971-9.042869 3.679505-4.907273 1.241158-5.140914 1.381064-7.141558 1.377066-4.456978 0.387737-4.730793 0.386738-4.928658 0.541633-5.740508 0.231843-23.448502 0-13.249417-0.231843-12.841693-1.316108-6.512984-0.913381-12.414983-1.844749-6.130843-1.241158-5.684146-1.819766-5.680549-1.322104-5.120528-2.055606-4.847114-1.919698-4.499949-2.150542-3.917744-2.371392-3.919343-2.844072-1.319106-1.377066-1.743818-1.668869-1.319106-1.477998-1.203784-1.687856-1.087862-1.687856-0.851822-1.683858-1.22377-3.592564-0.444698-1.860738-0.542632-2.055606 0-1.923696 0.542632-2.150542 0-2.150542 0.444698-2.151541 0-4.29209 0.213855-2.306436 1.009715-2.599238 0.851822-2.602236 1.550549-3.134875 1.125237-1.247154 0.932368-1.376067 2.442344-2.985976 1.939685-1.531961 1.821165-1.086264 1.688855-1.35708 2.696172-0.853421 2.130555-1.302117 2.678584-1.377066 3.065322-0.933367 3.065522-0.925373 3.530606-0.754488 3.371714-0.447696 3.998289-0.546629 4.30608-0.306792 1.143225-0.391734 0.233841 0 0.543232-0.45769 0-0.532639-0.776873-1.065278-2.306836-1.086264-5.741108-4.98462-3.841995-3.064922-4.459976-3.889363-4.499949-4.393022-4.693818-5.577219-5.352371-6.286738-2.017032-3.3927-2.678784-3.512618-2.28645-4.075237-2.057605-4.462974-2.794505-4.201152-1.821365-4.834722-2.150942-4.82373-2.156138-5.377354-1.587923-5.115532-1.475-6.382673-0.464685-0.230843-0.447297 0-0.231243-0.452693-0.542632 0-0.911982 0.452693-0.465285 0.230843-0.622978 1.065278-0.230843 1.316108-0.465085 1.146223-0.814448 1.919698-2.64081 4.673831-1.35648 2.855064-2.15354 2.441345-2.306436 2.985976-2.522889 3.300762-2.675586 2.910027-3.14127 2.829082-2.929414 2.679184-3.20123 2.089583-3.527608 2.216497-3.37711 1.316108-3.995291 0.991328-3.919343 0.365752-0.92937 0-0.894793-0.365752-0.696128-1.532961-1.16581-0.779472-1.510376-3.683503-0.931968-1.974661-1.007717-2.855064-0.833835-2.96399-0.447297-2.93501-1.241758-6.663482-0.464685-3.925339 0-12.874271 0.464685-9.584502 0.776474-4.903675 0.912381-5.065566 0.833835-5.447307 1.472602-5.045579 1.668869-5.85503 1.705843-5.66316 2.291446-5.819055 2.15354-5.603201 2.96499-5.684146 2.793706-6.130843 3.374712-5.739109 3.974705-6.211788 4.05565-5.602202 4.229133-6.204793 3.529607-4.272104 4.520335-5.004607 4.751778-4.965234 2.211101-2.387381 2.696172-2.693774 3.897358-3.376711 3.99729-3.45206 6.515582-5.819454 4.924661-3.603557L330.048811 492.088956zM510.556027 959.477266c-60.721231 0-119.603109-11.889939-175.042321-35.332844-53.542098-22.649644-101.624299-55.061668-142.910307-96.349475-41.287807-41.288806-73.703429-89.36621-96.350474-142.90571-23.448102-55.434216-35.338041-114.311297-35.338041-174.990357 0-60.690652 11.892337-119.57273 35.338041-175.011342 22.647045-53.5405 55.062468-101.617903 96.350474-142.900713 41.285808-41.287807 89.370607-73.701231 142.910307-96.345478 55.44221-23.448102 114.32129-35.338041 175.042321-35.338041 60.696648 0 119.577726 11.889939 175.011942 35.338041 53.545696 22.644047 101.627896 55.057471 142.915703 96.345478 41.28281 41.28301 73.700831 89.36521 96.350474 142.900713 23.448102 55.438812 35.333044 114.315694 35.333044 175.011342 0 60.674263-11.889939 119.556141-35.333044 174.990357-22.649644 53.544497-55.067464 101.616904-96.350474 142.90571-41.288007 41.287807-89.370207 73.699832-142.915703 96.349475C630.133553 947.587328 571.252675 959.477266 510.556027 959.477266L510.556027 959.477266zM510.556027 86.062642c-233.740524 0-423.881608 190.128093-423.881608 423.831043 0 233.696554 190.138686 423.825047 423.881608 423.825047 233.712943 0 423.855626-190.128693 423.855626-423.825047C934.411453 276.190935 744.273966 86.062642 510.556027 86.062642z" fill="#272636" p-id="1492"></path></svg>